# xmcd
#
# Track frame offsets:
#	150
#	15420
#	32150
#	57352
#	70310
#	90200
#	115160
#	131295
#	148072
#	165290
#	187375
#
# Disc length: 2648 seconds
#
# Revision: 1
# Processed by: cddbd v1.5.1PL0 Copyright (c) Steve Scherf et al.
# Submitted via: audiograbber 1.83.01
#
DISCID=8e0a560b
DTITLE=Laurie Morvan Band - Find My Way Home
DYEAR=2004
DGENRE=Blues
TTITLE0=Big Love
TTITLE1=Hold On To You
TTITLE2=Find My Way Home
TTITLE3=I Can't Get Enough
TTITLE4=Tightrope
TTITLE5=Holy War
TTITLE6=Rock Me Right
TTITLE7=Only Beautiful People Fall In Love
TTITLE8=Once In My Life
TTITLE9=Let Me Go
TTITLE10=Let Me Love You Baby
EXTD=
EXTT0=
EXTT1=
EXTT2=
EXTT3=
EXTT4=
EXTT5=
EXTT6=
EXTT7=
EXTT8=
EXTT9=
EXTT10=
PLAYORDER=
